# xmcd
#
# Track frame offsets: 
#        150
#        17545
#        34441
#        39821
#        59187
#        83127
#        106038
#        127927
#        148843
#        156325
#        176104
#        212536
#        228810
#        250988
#
# Disc length: 3605 seconds
#
# Revision: 0
# Processed by: cddbd v1.5.2PL0 Copyright (c) Steve Scherf et al.
# Submitted via: ExactAudioCopy v0.95b4
#
DISCID=b90e130e
DTITLE=Micky Moody - Don't Blame Me
DYEAR=2001
DGENRE=Blues-Rock
TTITLE0=The Nicest Kind Of Blues
TTITLE1=Get Off My Back
TTITLE2=The Darker Side
TTITLE3=A Taste For Bourbon
TTITLE4=What Am I Gonna Do?
TTITLE5=Pretty Thing
TTITLE6=Changes
TTITLE7=Angry
TTITLE8=Wapiti's Spitfire
TTITLE9=Just Wanna Possess You
TTITLE10=Low-Down Cryogenic Blues
TTITLE11=Don't Blame Me
TTITLE12=Judge And Jury
TTITLE13=Sleepwalk
EXTD=
EXTT0=
EXTT1=
EXTT2=
EXTT3=
EXTT4=
EXTT5=
EXTT6=
EXTT7=
EXTT8=
EXTT9=
EXTT10=
EXTT11=
EXTT12=
EXTT13=
PLAYORDER=
